<svg id="Layer_1" data-name="Layer 1" xmlns="http://www.w3.org/2000/svg" viewBox="0 0 460.01 76.5"><defs><style>.cls-1{font-size:33px;fill:#403833;font-family:FuturaStd-Bold, Futura Std;font-weight:700;letter-spacing:-0.03em;}.cls-2{letter-spacing:0.01em;}.cls-3{letter-spacing:-0.03em;}.cls-4{letter-spacing:-0.02em;}.cls-5{letter-spacing:-0.03em;}.cls-6{letter-spacing:-0.03em;}.cls-7{letter-spacing:-0.02em;}.cls-8{letter-spacing:-0.04em;}.cls-9{letter-spacing:-0.04em;}.cls-10{letter-spacing:-0.03em;}.cls-11{letter-spacing:-0.03em;}.cls-12{letter-spacing:-0.03em;}.cls-13{fill:#979797;}.cls-14{fill:#423732;}.cls-15{fill:#594a42;}.cls-16{fill:#4e9ccc;}.cls-17{fill:#5ebe7e;}.cls-18{fill:#d1d1d1;}.cls-19{fill:#bcbc5e;}.cls-20{fill:#ce5f49;}.cls-21{fill:#eaeaea;}</style></defs><title>header</title><text class="cls-1" transform="translate(118.35 58.12)">B<tspan class="cls-2" x="21.22" y="0">R</tspan><tspan class="cls-3" x="43.96" y="0">A</tspan><tspan class="cls-4" x="68.74" y="0">N</tspan><tspan class="cls-5" x="97.02" y="0">D</tspan><tspan class="cls-6" x="120.97" y="0">O</tspan><tspan class="cls-7" x="149.41" y="0">N </tspan><tspan class="cls-8" x="188.48" y="0">B</tspan><tspan class="cls-9" x="209.49" y="0">O</tspan><tspan class="cls-10" x="237.33" y="0">S</tspan><tspan class="cls-11" x="256.77" y="0">WE</tspan><tspan class="cls-12" x="310.07" y="0">L</tspan><tspan class="cls-7" x="325.32" y="0">L</tspan></text><rect class="cls-13" x="13.82" width="2.42" height="18.11"/><rect class="cls-14" y="18.11" width="101.86" height="58.39" rx="5.43"/><rect class="cls-15" y="18.11" width="101.86" height="53.93" rx="5.43"/><rect class="cls-16" x="8.04" y="59.67" width="6.72" height="6.72"/><rect class="cls-17" x="8.04" y="50.73" width="15.67" height="6.72"/><rect class="cls-16" x="70.57" y="59.67" width="6.72" height="6.72"/><rect class="cls-16" x="16.97" y="59.67" width="6.72" height="6.72"/><rect class="cls-18" x="70.57" y="50.73" width="6.72" height="6.72"/><rect class="cls-16" x="79.5" y="59.67" width="6.72" height="6.72"/><rect class="cls-16" x="79.5" y="50.73" width="6.72" height="6.72"/><rect class="cls-17" x="70.57" y="50.73" width="6.72" height="6.72"/><rect class="cls-19" x="8.04" y="41.78" width="6.72" height="6.72"/><rect class="cls-19" x="8.04" y="32.83" width="6.72" height="6.72"/><rect class="cls-20" x="8.04" y="23.88" width="6.72" height="6.72"/><rect class="cls-21" x="25.9" y="59.67" width="42.45" height="6.72"/><rect class="cls-21" x="16.97" y="41.78" width="6.72" height="6.72"/><rect class="cls-21" x="16.97" y="32.83" width="6.72" height="6.72"/><rect class="cls-21" x="16.97" y="23.88" width="6.72" height="6.72"/><rect class="cls-21" x="25.9" y="50.73" width="6.72" height="6.72"/><rect class="cls-21" x="25.9" y="41.78" width="6.72" height="6.72"/><rect class="cls-21" x="25.9" y="32.83" width="6.72" height="6.72"/><rect class="cls-21" x="25.9" y="23.88" width="6.72" height="6.72"/><rect class="cls-21" x="34.84" y="50.73" width="6.72" height="6.72"/><rect class="cls-21" x="34.84" y="41.78" width="6.72" height="6.72"/><rect class="cls-21" x="34.84" y="32.83" width="6.72" height="6.72"/><rect class="cls-21" x="34.84" y="23.88" width="6.72" height="6.72"/><rect class="cls-21" x="43.77" y="50.73" width="6.72" height="6.72"/><rect class="cls-21" x="43.77" y="41.78" width="6.72" height="6.72"/><rect class="cls-21" x="43.77" y="32.83" width="6.72" height="6.72"/><rect class="cls-21" x="43.77" y="23.88" width="6.72" height="6.72"/><rect class="cls-21" x="52.7" y="50.73" width="6.72" height="6.72"/><rect class="cls-21" x="52.7" y="41.78" width="6.72" height="6.72"/><rect class="cls-21" x="52.7" y="32.83" width="6.72" height="6.72"/><rect class="cls-21" x="52.7" y="23.88" width="6.72" height="6.72"/><rect class="cls-21" x="61.63" y="50.73" width="6.72" height="6.72"/><rect class="cls-21" x="61.63" y="41.78" width="6.72" height="6.72"/><rect class="cls-21" x="61.63" y="32.83" width="6.72" height="6.72"/><rect class="cls-21" x="61.63" y="23.88" width="6.72" height="6.72"/><rect class="cls-21" x="70.57" y="32.83" width="6.72" height="6.72"/><rect class="cls-21" x="70.57" y="23.88" width="6.72" height="6.72"/><rect class="cls-21" x="79.5" y="32.83" width="6.72" height="6.72"/><rect class="cls-21" x="79.5" y="23.88" width="6.72" height="6.72"/><rect class="cls-19" x="88.43" y="50.73" width="6.72" height="6.72"/><rect class="cls-16" x="88.43" y="59.68" width="6.72" height="6.72"/><rect class="cls-19" x="88.43" y="41.78" width="6.72" height="6.72"/><rect class="cls-19" x="88.43" y="32.83" width="6.72" height="6.72"/><rect class="cls-19" x="88.43" y="23.88" width="6.72" height="6.72"/><rect class="cls-20" x="70.57" y="41.78" width="15.65" height="6.72"/></svg>