<svg id="Layer_1" data-name="Layer 1" xmlns="http://www.w3.org/2000/svg" viewBox="0 0 460.01 93.04"><defs><style>.cls-1{font-size:33px;fill:#413934;font-family:FuturaStd-Bold, Futura Std;font-weight:700;letter-spacing:-0.03em;}.cls-2{letter-spacing:0.01em;}.cls-3{letter-spacing:-0.03em;}.cls-4{letter-spacing:-0.02em;}.cls-5{letter-spacing:-0.03em;}.cls-6{letter-spacing:-0.03em;}.cls-7{letter-spacing:-0.02em;}.cls-8{letter-spacing:-0.04em;}.cls-9{letter-spacing:-0.04em;}.cls-10{letter-spacing:-0.03em;}.cls-11{letter-spacing:-0.03em;}.cls-12{letter-spacing:-0.03em;}.cls-13{fill:#989798;}.cls-14{fill:#433832;}.cls-15{fill:#5a4b42;}.cls-16{fill:#4e9ccc;}.cls-17{fill:#5fbe7e;}.cls-18{fill:#d1d2d1;}.cls-19{fill:#bcbd5e;}.cls-20{fill:#cf6049;}.cls-21{fill:#ebebea;}</style></defs><title>header</title><text class="cls-1" transform="translate(118.35 74.66)">B<tspan class="cls-2" x="21.22" y="0">R</tspan><tspan class="cls-3" x="43.96" y="0">A</tspan><tspan class="cls-4" x="68.74" y="0">N</tspan><tspan class="cls-5" x="97.02" y="0">D</tspan><tspan class="cls-6" x="120.97" y="0">O</tspan><tspan class="cls-7" x="149.41" y="0">N </tspan><tspan class="cls-8" x="188.48" y="0">B</tspan><tspan class="cls-9" x="209.49" y="0">O</tspan><tspan class="cls-10" x="237.33" y="0">S</tspan><tspan class="cls-11" x="256.77" y="0">WE</tspan><tspan class="cls-12" x="310.07" y="0">L</tspan><tspan class="cls-7" x="325.32" y="0">L</tspan></text><rect class="cls-13" x="13.82" width="2.42" height="34.64"/><rect class="cls-14" y="34.64" width="101.86" height="58.39" rx="5.43"/><rect class="cls-15" y="34.64" width="101.86" height="53.93" rx="5.43"/><rect class="cls-16" x="8.04" y="76.21" width="6.72" height="6.72"/><rect class="cls-17" x="8.04" y="67.27" width="15.67" height="6.72"/><rect class="cls-16" x="70.57" y="76.21" width="6.72" height="6.72"/><rect class="cls-16" x="16.97" y="76.21" width="6.72" height="6.72"/><rect class="cls-18" x="70.57" y="67.27" width="6.72" height="6.72"/><rect class="cls-16" x="79.5" y="76.21" width="6.72" height="6.72"/><rect class="cls-16" x="79.5" y="67.27" width="6.72" height="6.72"/><rect class="cls-17" x="70.57" y="67.27" width="6.72" height="6.72"/><rect class="cls-19" x="8.04" y="58.32" width="6.72" height="6.72"/><rect class="cls-19" x="8.04" y="49.37" width="6.72" height="6.72"/><rect class="cls-20" x="8.04" y="40.42" width="6.72" height="6.72"/><rect class="cls-21" x="25.9" y="76.21" width="42.45" height="6.72"/><rect class="cls-21" x="16.97" y="58.32" width="6.72" height="6.72"/><rect class="cls-21" x="16.97" y="49.37" width="6.72" height="6.72"/><rect class="cls-21" x="16.97" y="40.42" width="6.72" height="6.72"/><rect class="cls-21" x="25.9" y="67.27" width="6.72" height="6.72"/><rect class="cls-21" x="25.9" y="58.32" width="6.72" height="6.72"/><rect class="cls-21" x="25.9" y="49.37" width="6.72" height="6.72"/><rect class="cls-21" x="25.9" y="40.42" width="6.72" height="6.72"/><rect class="cls-21" x="34.84" y="67.27" width="6.72" height="6.72"/><rect class="cls-21" x="34.84" y="58.32" width="6.72" height="6.72"/><rect class="cls-21" x="34.84" y="49.37" width="6.72" height="6.72"/><rect class="cls-21" x="34.84" y="40.42" width="6.72" height="6.72"/><rect class="cls-21" x="43.77" y="67.27" width="6.72" height="6.72"/><rect class="cls-21" x="43.77" y="58.32" width="6.72" height="6.72"/><rect class="cls-21" x="43.77" y="49.37" width="6.72" height="6.72"/><rect class="cls-21" x="43.77" y="40.42" width="6.72" height="6.72"/><rect class="cls-21" x="52.7" y="67.27" width="6.72" height="6.72"/><rect class="cls-21" x="52.7" y="58.32" width="6.72" height="6.72"/><rect class="cls-21" x="52.7" y="49.37" width="6.72" height="6.72"/><rect class="cls-21" x="52.7" y="40.42" width="6.72" height="6.72"/><rect class="cls-21" x="61.63" y="67.27" width="6.72" height="6.72"/><rect class="cls-21" x="61.63" y="58.32" width="6.72" height="6.72"/><rect class="cls-21" x="61.63" y="49.37" width="6.72" height="6.72"/><rect class="cls-21" x="61.63" y="40.42" width="6.72" height="6.72"/><rect class="cls-21" x="70.57" y="49.37" width="6.72" height="6.72"/><rect class="cls-21" x="70.57" y="40.42" width="6.72" height="6.72"/><rect class="cls-21" x="79.5" y="49.37" width="6.72" height="6.72"/><rect class="cls-21" x="79.5" y="40.42" width="6.72" height="6.72"/><rect class="cls-19" x="88.43" y="67.27" width="6.72" height="6.72"/><rect class="cls-16" x="88.43" y="76.22" width="6.72" height="6.72"/><rect class="cls-19" x="88.43" y="58.32" width="6.72" height="6.72"/><rect class="cls-19" x="88.43" y="49.37" width="6.72" height="6.72"/><rect class="cls-19" x="88.43" y="40.42" width="6.72" height="6.72"/><rect class="cls-20" x="70.57" y="58.32" width="15.65" height="6.72"/></svg>