<svg id="Layer_1" data-name="Layer 1" xmlns="http://www.w3.org/2000/svg" viewBox="0 0 460.01 93.04"><defs><style>.cls-1{fill:#413934;}.cls-2{fill:#989798;}.cls-3{fill:#433832;}.cls-4{fill:#5a4b42;}.cls-5{fill:#4e9ccc;}.cls-6{fill:#5fbe7e;}.cls-7{fill:#d1d2d1;}.cls-8{fill:#bcbd5e;}.cls-9{fill:#cf6049;}.cls-10{fill:#ebebea;}</style></defs><title>header</title><path class="cls-1" d="M120.46,74.66V49.77h9.24c4.42,0,7.39,1.72,7.39,6.47,0,2.25-.72,4.06-2.73,5.09v.06c3.56.46,5.08,2.87,5.08,6.34,0,5.21-4.46,6.93-9,6.93Zm6.47-15.12h.73c1.71,0,3.49-.29,3.49-2.41,0-2.27-2-2.41-3.76-2.41h-.46Zm0,10.17h.82c1.92,0,5.15.1,5.15-2.64,0-3-3.2-2.71-5.31-2.71h-.66Z"/><path class="cls-1" d="M162.37,74.66h-8.05l-6.11-9.57h-.06v9.57h-6.47V49.77h9.67c4.92,0,8.65,2.35,8.65,7.66,0,3.43-1.92,6.4-5.45,7ZM148.15,60.93h.62c2.12,0,4.49-.4,4.49-3.1s-2.37-3.11-4.49-3.11h-.62Z"/><path class="cls-1" d="M170.76,70.34,169,74.66h-6.86l9.57-24.89h7.06l9.38,24.89h-6.9l-1.62-4.32Zm4.52-12.88h-.07l-2.67,7.92h5.38Z"/><path class="cls-1" d="M189.2,49.77h6.47L207.52,65h.06V49.77h6.47V74.66h-6.47L195.74,59.41h-.07V74.66H189.2Z"/><path class="cls-1" d="M217.48,49.77h9.17a12.45,12.45,0,1,1,0,24.89h-9.17Zm6.46,19.41h1.46c3.86,0,7.16-2.11,7.16-7,0-4.46-2.94-7-7.1-7h-1.52Z"/><path class="cls-1" d="M267.71,61.75c0,8.06-5.78,13.73-13.77,13.73s-13.76-5.67-13.76-13.73c0-7.52,6.6-12.8,13.76-12.8S267.71,54.23,267.71,61.75Zm-20.8,0a7,7,0,1,0,14.06,0,7,7,0,0,0-14.06,0Z"/><path class="cls-1" d="M269.87,49.77h6.47L288.19,65h.07V49.77h6.47V74.66h-6.47L276.41,59.41h-.07V74.66h-6.47Z"/><path class="cls-1" d="M308.94,74.66V49.77h9.25c4.42,0,7.39,1.72,7.39,6.47,0,2.25-.73,4.06-2.74,5.09v.06c3.56.46,5.08,2.87,5.08,6.34,0,5.21-4.45,6.93-9,6.93Zm6.47-15.12h.73c1.72,0,3.5-.29,3.5-2.41,0-2.27-2-2.41-3.76-2.41h-.47Zm0,10.17h.83c1.91,0,5.15.1,5.15-2.64,0-3-3.2-2.71-5.32-2.71h-.66Z"/><path class="cls-1" d="M356.22,61.75c0,8.06-5.77,13.73-13.76,13.73S328.7,69.81,328.7,61.75c0-7.52,6.6-12.8,13.76-12.8S356.22,54.23,356.22,61.75Zm-20.79,0a7,7,0,1,0,14.06,0,7,7,0,0,0-14.06,0Z"/><path class="cls-1" d="M371.45,56.18a6.77,6.77,0,0,0-4.29-1.65c-1.18,0-2.77.69-2.77,2.08s1.75,2,2.87,2.37l1.65.5c3.47,1,6.14,2.77,6.14,6.8,0,2.47-.59,5-2.57,6.7a10.94,10.94,0,0,1-7.07,2.34,15.36,15.36,0,0,1-8.74-2.84l2.77-5.21a8.87,8.87,0,0,0,5.74,2.57c1.52,0,3.14-.76,3.14-2.51s-2.54-2.44-3.93-2.84c-4.06-1.15-6.73-2.21-6.73-7,0-5.05,3.6-8.35,8.58-8.35a17.07,17.07,0,0,1,7.79,2Z"/><path class="cls-1" d="M385.68,65.85h.06L391,49.77h5.15L401,65.85h.07l4.68-16.08h6.74l-8,24.89h-6.6l-4.36-14.42h-.06l-4.89,14.42h-6.56l-7.43-24.89h6.73Z"/><path class="cls-1" d="M419.7,55.25v4.16H427v5.48h-7.3v4.29h7.69v5.48H413.23V49.77h14.16v5.48Z"/><path class="cls-1" d="M437,69.18h7.75v5.48H430.53V49.77H437Z"/><path class="cls-1" d="M452.25,69.18H460v5.48H445.78V49.77h6.47Z"/><rect class="cls-2" x="13.82" width="2.42" height="34.64"/><rect class="cls-3" y="34.64" width="101.86" height="58.39" rx="5.43"/><rect class="cls-4" y="34.64" width="101.86" height="53.93" rx="5.43"/><rect class="cls-5" x="8.04" y="76.21" width="6.72" height="6.72"/><rect class="cls-6" x="8.04" y="67.27" width="15.67" height="6.72"/><rect class="cls-5" x="70.57" y="76.21" width="6.72" height="6.72"/><rect class="cls-5" x="16.97" y="76.21" width="6.72" height="6.72"/><rect class="cls-7" x="70.57" y="67.27" width="6.72" height="6.72"/><rect class="cls-5" x="79.5" y="76.21" width="6.72" height="6.72"/><rect class="cls-5" x="79.5" y="67.27" width="6.72" height="6.72"/><rect class="cls-6" x="70.57" y="67.27" width="6.72" height="6.72"/><rect class="cls-8" x="8.04" y="58.32" width="6.72" height="6.72"/><rect class="cls-8" x="8.04" y="49.37" width="6.72" height="6.72"/><rect class="cls-9" x="8.04" y="40.42" width="6.72" height="6.72"/><rect class="cls-10" x="25.9" y="76.21" width="42.45" height="6.72"/><rect class="cls-10" x="16.97" y="58.32" width="6.72" height="6.72"/><rect class="cls-10" x="16.97" y="49.37" width="6.72" height="6.72"/><rect class="cls-10" x="16.97" y="40.42" width="6.72" height="6.72"/><rect class="cls-10" x="25.9" y="67.27" width="6.72" height="6.72"/><rect class="cls-10" x="25.9" y="58.32" width="6.72" height="6.72"/><rect class="cls-10" x="25.9" y="49.37" width="6.72" height="6.72"/><rect class="cls-10" x="25.9" y="40.42" width="6.72" height="6.72"/><rect class="cls-10" x="34.84" y="67.27" width="6.72" height="6.72"/><rect class="cls-10" x="34.84" y="58.32" width="6.72" height="6.72"/><rect class="cls-10" x="34.84" y="49.37" width="6.72" height="6.72"/><rect class="cls-10" x="34.84" y="40.42" width="6.72" height="6.72"/><rect class="cls-10" x="43.77" y="67.27" width="6.72" height="6.72"/><rect class="cls-10" x="43.77" y="58.32" width="6.72" height="6.72"/><rect class="cls-10" x="43.77" y="49.37" width="6.72" height="6.72"/><rect class="cls-10" x="43.77" y="40.42" width="6.72" height="6.72"/><rect class="cls-10" x="52.7" y="67.27" width="6.72" height="6.72"/><rect class="cls-10" x="52.7" y="58.32" width="6.72" height="6.72"/><rect class="cls-10" x="52.7" y="49.37" width="6.72" height="6.72"/><rect class="cls-10" x="52.7" y="40.42" width="6.72" height="6.72"/><rect class="cls-10" x="61.63" y="67.27" width="6.72" height="6.72"/><rect class="cls-10" x="61.63" y="58.32" width="6.72" height="6.72"/><rect class="cls-10" x="61.63" y="49.37" width="6.72" height="6.72"/><rect class="cls-10" x="61.63" y="40.42" width="6.72" height="6.72"/><rect class="cls-10" x="70.57" y="49.37" width="6.72" height="6.72"/><rect class="cls-10" x="70.57" y="40.42" width="6.72" height="6.72"/><rect class="cls-10" x="79.5" y="49.37" width="6.72" height="6.72"/><rect class="cls-10" x="79.5" y="40.42" width="6.72" height="6.72"/><rect class="cls-8" x="88.43" y="67.27" width="6.72" height="6.72"/><rect class="cls-5" x="88.43" y="76.22" width="6.72" height="6.72"/><rect class="cls-8" x="88.43" y="58.32" width="6.72" height="6.72"/><rect class="cls-8" x="88.43" y="49.37" width="6.72" height="6.72"/><rect class="cls-8" x="88.43" y="40.42" width="6.72" height="6.72"/><rect class="cls-9" x="70.57" y="58.32" width="15.65" height="6.72"/></svg>